# xmcd
#
# Track frame offsets: 
#        150
#        16014
#        42086
#        59367
#        74893
#        90335
#        115878
#        137450
#        155609
#
# Disc length: 2419 seconds
#
# Revision: 0
# Processed by: cddbd v1.4b42PL1 Copyright (c) Steve Scherf et al.
# Submitted via: ExactAudioCopy v0.90a11
#
DISCID=70097109
DTITLE=J.J. Cale - Hammersmith Odeon - London, England - 6.10.94 - Dis
DTITLE=c 2
DYEAR=1900
DGENRE=
TTITLE0=Hard Love
TTITLE1=Cocaine
TTITLE2=Money Talks
TTITLE3=Crazy Mama
TTITLE4=Magnolia
TTITLE5=Livin Here Too
TTITLE6=Hard Times
TTITLE7=Tijuana
TTITLE8=Mama Don't
EXTD=
EXTT0=
EXTT1=
EXTT2=
EXTT3=
EXTT4=
EXTT5=
EXTT6=
EXTT7=
EXTT8=
PLAYORDER=
